<svg height="512pt" viewBox="0 0 512 512" width="512pt" xmlns="http://www.w3.org/2000/svg"><path d="m386 53c0 5.523438-4.476562 10-10 10s-10-4.476562-10-10 4.476562-10 10-10 10 4.476562 10 10zm0 0"/><path d="m424.589844 330.878906-113.332032-190c-1.804687-3.027344-5.066406-4.878906-8.585937-4.878906h-93.34375c-3.820313 0-6.636719 1.882812-8.660156 5-.003907.007812-.007813.011719-.011719.019531l-113.246094 189.859375c-2.015625 3.378906-1.859375 7.628906.398438 10.855469 0 0 47.742187 68.207031 47.769531 68.242187.628906.617188 2.984375 6.023438 9.421875 6.023438h222c3.265625 0 6.320312-1.59375 8.191406-4.265625l49-70c.011719-.015625.019532-.035156.03125-.050781 2.21875-3.199219 2.367188-7.457032.367188-10.804688zm-26.199219-4.878906h-66.457031l-104.699219-170h69.757813zm-89.945313 0h-104.890624l52.445312-85.152344zm-98.976562-160.707031 34.789062 56.484375-101.101562 164.152344-35.253906-50.363282zm152.324219 230.707031h-201.351563l30.796875-50h205.554688zm0 0"/><path d="m462 0h-412c-27.570312 0-50 22.429688-50 50v412c0 27.570312 22.429688 50 50 50h412c27.570312 0 50-22.429688 50-50v-412c0-27.570312-22.429688-50-50-50zm30 462c0 16.542969-13.457031 30-30 30h-412c-16.542969 0-30-13.457031-30-30v-412c0-16.542969 13.457031-30 30-30h412c16.542969 0 30 13.457031 30 30zm0 0"/><path d="m136 63h200c5.523438 0 10-4.476562 10-10s-4.476562-10-10-10h-200c-5.523438 0-10 4.476562-10 10s4.476562 10 10 10zm0 0"/></svg>