<svg height="512pt" viewBox="0 0 512 512" width="512pt" xmlns="http://www.w3.org/2000/svg"><path d="m386 53c0 5.523438-4.476562 10-10 10s-10-4.476562-10-10 4.476562-10 10-10 10 4.476562 10 10zm0 0"/><path d="m256 106c-93.738281 0-170 76.261719-170 170s76.261719 170 170 170 170-76.261719 170-170-76.261719-170-170-170zm0 320c-82.710938 0-150-67.289062-150-150s67.289062-150 150-150 150 67.289062 150 150-67.289062 150-150 150zm0 0"/><path d="m196 246c16.542969 0 30-13.457031 30-30s-13.457031-30-30-30-30 13.457031-30 30 13.457031 30 30 30zm0-40c5.515625 0 10 4.484375 10 10s-4.484375 10-10 10-10-4.484375-10-10 4.484375-10 10-10zm0 0"/><path d="m316 246c16.542969 0 30-13.457031 30-30s-13.457031-30-30-30-30 13.457031-30 30 13.457031 30 30 30zm0-40c5.515625 0 10 4.484375 10 10s-4.484375 10-10 10-10-4.484375-10-10 4.484375-10 10-10zm0 0"/><path d="m462 0h-412c-27.570312 0-50 22.429688-50 50v412c0 27.570312 22.429688 50 50 50h412c27.570312 0 50-22.429688 50-50v-412c0-27.570312-22.429688-50-50-50zm30 462c0 16.542969-13.457031 30-30 30h-412c-16.542969 0-30-13.457031-30-30v-412c0-16.542969 13.457031-30 30-30h412c16.542969 0 30 13.457031 30 30zm0 0"/><path d="m136 63h200c5.523438 0 10-4.476562 10-10s-4.476562-10-10-10h-200c-5.523438 0-10 4.476562-10 10s4.476562 10 10 10zm0 0"/><path d="m126 276c0 71.992188 58.878906 130 130 130 71.867188 0 130-58.585938 130-130 0-5.523438-4.476562-10-10-10h-240c-5.523438 0-10 4.476562-10 10zm130 110c-41.59375 0-79.320312-23.617188-97.9375-60.011719h195.875c-18.617188 36.394531-56.34375 60.011719-97.9375 60.011719zm109.550781-100c-.617187 6.78125-1.859375 13.46875-3.71875 20h-211.664062c-1.859375-6.53125-3.101563-13.214844-3.71875-20zm0 0"/></svg>