<svg height="512pt" viewBox="0 0 512 512" width="512pt" xmlns="http://www.w3.org/2000/svg"><path d="m386 53c0 5.523438-4.476562 10-10 10s-10-4.476562-10-10 4.476562-10 10-10 10 4.476562 10 10zm0 0"/><path d="m216 176c-5.523438 0-10 4.476562-10 10v180c0 5.523438 4.476562 10 10 10s10-4.476562 10-10v-180c0-5.523438-4.476562-10-10-10zm0 0"/><path d="m176 236c-5.523438 0-10 4.476562-10 10v120c0 5.523438 4.476562 10 10 10s10-4.476562 10-10v-120c0-5.523438-4.476562-10-10-10zm0 0"/><path d="m136 216c-5.523438 0-10 4.476562-10 10v140c0 5.523438 4.476562 10 10 10s10-4.476562 10-10v-140c0-5.523438-4.476562-10-10-10zm0 0"/><path d="m96 276c-5.523438 0-10 4.476562-10 10v80c0 5.523438 4.476562 10 10 10s10-4.476562 10-10v-80c0-5.523438-4.476562-10-10-10zm0 0"/><path d="m366 246c-1.6875 0-3.375.070312-5.054688.210938-12.773437-36.269532-46.953124-60.210938-84.945312-60.210938-7.59375 0-15.160156.953125-22.484375 2.835938-4.421875 1.132812-7.515625 5.117187-7.515625 9.683593v157.480469c0 5.523438 4.476562 10 10 10h110c33.085938 0 60-26.914062 60-60s-26.914062-60-60-60zm0 100h-100v-139.289062c3.304688-.472657 6.648438-.710938 10-.710938 32.597656 0 60.609375 22.121094 68.121094 53.796875 1.289062 5.4375 6.773437 8.738281 12.148437 7.394531 3.175781-.789062 6.449219-1.191406 9.730469-1.191406 22.054688 0 40 17.945312 40 40s-17.945312 40-40 40zm0 0"/><path d="m462 0h-412c-27.570312 0-50 22.429688-50 50v412c0 27.570312 22.429688 50 50 50h412c27.570312 0 50-22.429688 50-50v-412c0-27.570312-22.429688-50-50-50zm30 462c0 16.542969-13.457031 30-30 30h-412c-16.542969 0-30-13.457031-30-30v-412c0-16.542969 13.457031-30 30-30h412c16.542969 0 30 13.457031 30 30zm0 0"/><path d="m136 63h200c5.523438 0 10-4.476562 10-10s-4.476562-10-10-10h-200c-5.523438 0-10 4.476562-10 10s4.476562 10 10 10zm0 0"/></svg>