<svg height="512pt" viewBox="0 0 512 512" width="512pt" xmlns="http://www.w3.org/2000/svg"><path d="m386 53c0 5.523438-4.476562 10-10 10s-10-4.476562-10-10 4.476562-10 10-10 10 4.476562 10 10zm0 0"/><path d="m394.714844 349.710938-59.585938-73.453126s59.695313-73.59375 59.746094-73.660156c20.175781-26.210937 15.265625-63.957031-10.945312-84.144531-26.1875-20.148437-63.875-15.273437-84.074219 10.859375l-53.855469 67.027344v-30.339844c0-33.085938-26.914062-60-60-60s-60 26.914062-60 60v220c0 33.085938 26.914062 60 60 60s60-26.914062 60-60v-29.734375l53.855469 66.945313c20.234375 26.175781 57.808593 31.066406 84.074219 10.84375 26.214843-20.175782 31.125-57.925782 10.945312-84.144532-.050781-.066406-.105469-.132812-.160156-.199218zm-22.984375 68.496093c-17.515625 13.488281-42.605469 10.230469-56.097657-7.289062-.042968-.054688-71.839843-89.308594-71.839843-89.308594-1.9375-2.40625-4.824219-3.730469-7.796875-3.730469-1.109375 0-2.230469.183594-3.320313.570313-4 1.40625-6.675781 5.1875-6.675781 9.429687v58.121094c0 22.054688-17.945312 40-40 40s-40-17.945312-40-40v-220c0-22.054688 17.945312-40 40-40s40 17.945312 40 40v58.75c0 4.242188 2.679688 8.023438 6.679688 9.433594 4.003906 1.410156 8.457031.136718 11.117187-3.167969 0 0 71.792969-89.359375 71.835937-89.414063 13.457032-17.472656 38.625-20.746093 56.097657-7.296874 17.441406 13.429687 20.734375 38.53125 7.367187 56l-64.613281 79.65625c-2.980469 3.671874-2.976563 8.925781 0 12.597656l64.613281 79.644531c13.371094 17.476563 10.078125 42.574219-7.367187 56.003906zm0 0"/><path d="m462 0h-412c-27.570312 0-50 22.429688-50 50v412c0 27.570312 22.429688 50 50 50h412c27.570312 0 50-22.429688 50-50v-412c0-27.570312-22.429688-50-50-50zm30 462c0 16.542969-13.457031 30-30 30h-412c-16.542969 0-30-13.457031-30-30v-412c0-16.542969 13.457031-30 30-30h412c16.542969 0 30 13.457031 30 30zm0 0"/><path d="m136 63h200c5.523438 0 10-4.476562 10-10s-4.476562-10-10-10h-200c-5.523438 0-10 4.476562-10 10s4.476562 10 10 10zm0 0"/></svg>