<svg height="512pt" viewBox="0 0 512 512" width="512pt" xmlns="http://www.w3.org/2000/svg"><path d="m386 53c0 5.523438-4.476562 10-10 10s-10-4.476562-10-10 4.476562-10 10-10 10 4.476562 10 10zm0 0"/><path d="m195.78125 266c27.382812 0 49.660156-22.277344 49.660156-49.660156 0-27.375-22.277344-49.648438-49.660156-49.648438-27.378906 0-49.652344 22.273438-49.652344 49.648438 0 27.382812 22.273438 49.660156 49.652344 49.660156zm0-79.308594c16.351562 0 29.660156 13.300782 29.660156 29.648438 0 16.351562-13.308594 29.660156-29.660156 29.660156s-29.652344-13.308594-29.652344-29.660156c0-16.347656 13.300782-29.648438 29.652344-29.648438zm0 0"/><path d="m316.640625 266c27.214844 0 49.359375-22.144531 49.359375-49.359375 0-27.210937-22.144531-49.351563-49.359375-49.351563-27.210937 0-49.351563 22.140626-49.351563 49.351563 0 27.214844 22.140626 49.359375 49.351563 49.359375zm0-78.710938c16.1875 0 29.359375 13.167969 29.359375 29.351563 0 16.1875-13.171875 29.359375-29.359375 29.359375-16.183594 0-29.351563-13.171875-29.351563-29.359375 0-16.183594 13.167969-29.351563 29.351563-29.351563zm0 0"/><path d="m462 0h-412c-27.570312 0-50 22.429688-50 50v412c0 27.570312 22.429688 50 50 50h412c27.570312 0 50-22.429688 50-50v-412c0-27.570312-22.429688-50-50-50zm30 462c0 16.542969-13.457031 30-30 30h-412c-16.542969 0-30-13.457031-30-30v-412c0-16.542969 13.457031-30 30-30h412c16.542969 0 30 13.457031 30 30zm0 0"/><path d="m136 63h200c5.523438 0 10-4.476562 10-10s-4.476562-10-10-10h-200c-5.523438 0-10 4.476562-10 10s4.476562 10 10 10zm0 0"/><path d="m406 260.5625v-124.5625c0-16.542969-13.457031-30-30-30h-240c-16.542969 0-30 13.457031-30 30v124.648438c-5.027344.152343-9.964844 2.210937-13.789062 6.152343-7.25 7.460938-7.6875 18.679688-1.042969 26.667969 15.722656 18.921875 28.394531 34.933594 54.421875 46.230469-5.253906 38.628906.945312 69.992187 17.714844 88.890625 9.5 10.726562 21.972656 16.902344 35.128906 17.402344.125.003906.25.007812.375.007812h17.191406c16.542969 0 30-13.457031 30-30v-58.195312l20 3.335937v54.859375c0 16.542969 13.457031 29.988281 30 29.988281 18.199219.007813 17.058594.023438 17.789062-.054687 13.730469-.574219 26.542969-7.207032 36.191407-18.835938 11.332031-13.652344 23.003906-39.75 16.433593-87.398437 25.773438-11.1875 38.535157-27.089844 54.421876-46.230469 6.652343-8.011719 6.195312-19.265625-1.085938-26.757812-3.828125-3.941407-8.75-6-13.75-6.148438zm-270-134.5625h240c5.515625 0 10 4.484375 10 10v132.605469c-24.101562 12.601562-39.742188 16.097656-56.511719 17.394531h-33.488281c-11.347656 0-21.242188 6.335938-26.339844 15.648438l-21.921875-10.960938c-6.121093-3.066406-12.988281-4.6875-19.855469-4.6875h-45.371093c-16.769531-1.296875-32.414063-4.792969-56.511719-17.394531v-132.605469c0-5.515625 4.484375-10 10-10zm101.644531 210.136719c-6.136719-1.015625-11.644531 3.722656-11.644531 9.863281v70c0 5.515625-4.484375 10-10 10h-16.984375c-7.582031-.339844-14.941406-4.125-20.746094-10.675781-7.996093-9.015625-20.15625-31.433594-11.722656-80.292969.824219-4.800781-1.921875-9.496094-6.511719-11.125-26.179687-9.296875-37.671875-24.175781-53.460937-43.1875.023437-.023438.042969-.042969.066406-.0625.054687.035156.121094.082031.203125.148438.792969.621093 1.339844.898437 4.101562 2.417968.027344.011719-.097656-.054687.257813.140625.023437.015625.046875.027344.070313.039063 26.28125 14.421875 45.945312 20.75 70.105468 22.570312.25.019532 46.5.027344 46.5.027344 3.777344 0 7.546875.890625 10.910156 2.574219l27.210938 13.605469v18.683593zm167.800781-55.445313c-14.796874 17.839844-26.476562 33.453125-52.898437 43.003906-4.886719 1.394532-7.972656 6.265626-7.101563 11.316407 8.238282 47.699219-3.265624 70.167969-10.855468 79.3125-6.140625 7.398437-14.0625 11.539062-22.375 11.675781-4.753906 0-8.960938 0-16.214844 0-5.515625 0-10-4.488281-10-10v-100c0-5.515625 4.484375-10 10-10 0 0 34.371094-.011719 34.621094-.027344 37.605468-2.832031 58.71875-17.433594 70.203125-22.625 4.667969-2.570312 3.480469-1.957031 4.558593-2.722656.023438.019531.042969.042969.0625.066406zm0 0"/></svg>