<svg height="512pt" viewBox="0 0 512 512" width="512pt" xmlns="http://www.w3.org/2000/svg"><path d="m386 53c0 5.523438-4.476562 10-10 10s-10-4.476562-10-10 4.476562-10 10-10 10 4.476562 10 10zm0 0"/><path d="m462 0h-412c-27.570312 0-50 22.429688-50 50v412c0 27.570312 22.429688 50 50 50h412c27.570312 0 50-22.429688 50-50v-412c0-27.570312-22.429688-50-50-50zm30 462c0 16.542969-13.457031 30-30 30h-412c-16.542969 0-30-13.457031-30-30v-412c0-16.542969 13.457031-30 30-30h412c16.542969 0 30 13.457031 30 30zm0 0"/><path d="m253.851562 106.003906c-91.441406 0-167.851562 62.070313-167.851562 170.046875 0 105.574219 76.875 169.949219 168.640625 169.949219 92.445313 0 171.359375-65.472656 171.359375-175.890625 0-101.117187-79.949219-164.105469-172.148438-164.105469zm.789063 319.996094c-71.589844 0-148.640625-46.925781-148.640625-149.949219 0-94.953125 65.433594-150.046875 147.851562-150.046875 75.609376 0 152.148438 49.5 152.148438 144.105469 0 97.671875-68.238281 155.890625-151.359375 155.890625zm0 0"/><path d="m255.398438 140.320312c-59.890626 0-68.070313 70.597657-68.070313 130.558594 0 97.628906 20.425781 139.28125 68.292969 139.28125 29.628906 0 49.78125-17.695312 59.890625-52.589844 7.9375-27.390624 8.535156-60.988281 9.058593-89.386718.003907-.234375 0-.472656-.011718-.710938-1.726563-32.742187 1.414062-127.152344-69.160156-127.152344zm.222656 249.839844c-15.675782 0-48.292969 0-48.292969-119.28125 0-110.558594 33.6875-110.558594 48.070313-110.558594 46.511718 0 46.84375 62.234376 49.167968 107.847657-2.304687 48.304687-.203125 121.992187-48.945312 121.992187zm0 0"/><path d="m136 63h200c5.523438 0 10-4.476562 10-10s-4.476562-10-10-10h-200c-5.523438 0-10 4.476562-10 10s4.476562 10 10 10zm0 0"/></svg>