<svg height="512pt" viewBox="0 0 512 512" width="512pt" xmlns="http://www.w3.org/2000/svg"><path d="m386 53c0 5.523438-4.476562 10-10 10s-10-4.476562-10-10 4.476562-10 10-10 10 4.476562 10 10zm0 0"/><path d="m356 186h-70v-70c0-4.304688-2.753906-8.125-6.839844-9.484375l-60-20c-3.046875-1.019531-6.398437-.507813-9.007812 1.371094-2.605469 1.878906-4.152344 4.898437-4.152344 8.113281v40c0 27.570312-22.429688 50-50 50-5.523438 0-10 4.476562-10 10v60c0 5.523438 4.476562 10 10 10h30v70c0 60.652344 49.347656 110 110 110h60c5.523438 0 10-4.476562 10-10v-80c0-5.523438-4.476562-10-10-10h-60c-5.515625 0-10-4.484375-10-10v-70h70c5.523438 0 10-4.476562 10-10v-60c0-5.523438-4.476562-10-10-10zm-10 60h-70c-5.523438 0-10 4.476562-10 10v80c0 16.542969 13.457031 30 30 30h50v60h-50c-49.625 0-90-40.375-90-90v-80c0-5.523438-4.476562-10-10-10h-30v-40.710938c33.878906-4.867187 60-34.085937 60-69.289062v-26.125l40 13.332031v72.792969c0 5.523438 4.476562 10 10 10h70zm0 0"/><path d="m462 0h-412c-27.570312 0-50 22.429688-50 50v412c0 27.570312 22.429688 50 50 50h412c27.570312 0 50-22.429688 50-50v-412c0-27.570312-22.429688-50-50-50zm30 462c0 16.542969-13.457031 30-30 30h-412c-16.542969 0-30-13.457031-30-30v-412c0-16.542969 13.457031-30 30-30h412c16.542969 0 30 13.457031 30 30zm0 0"/><path d="m346 53c0-5.523438-4.476562-10-10-10h-200c-5.523438 0-10 4.476562-10 10s4.476562 10 10 10h200c5.523438 0 10-4.476562 10-10zm0 0"/></svg>