<svg height="512pt" viewBox="0 0 512 512" width="512pt" xmlns="http://www.w3.org/2000/svg"><path d="m386 53c0 5.523438-4.476562 10-10 10s-10-4.476562-10-10 4.476562-10 10-10 10 4.476562 10 10zm0 0"/><path d="m416 246h-10v-10c0-5.523438-4.476562-10-10-10h-40c-5.523438 0-10 4.476562-10 10v10h-10c-5.523438 0-10 4.476562-10 10v40c0 5.523438 4.476562 10 10 10h10v10c0 5.523438 4.476562 10 10 10h40c5.523438 0 10-4.476562 10-10v-10h10c5.523438 0 10-4.476562 10-10v-40c0-5.523438-4.476562-10-10-10zm-10 40h-10c-5.523438 0-10 4.476562-10 10v10h-20v-10c0-5.523438-4.476562-10-10-10h-10v-20h10c5.523438 0 10-4.476562 10-10v-10h20v10c0 5.523438 4.476562 10 10 10h10zm0 0"/><path d="m462 0h-412c-27.570312 0-50 22.429688-50 50v412c0 27.570312 22.429688 50 50 50h412c27.570312 0 50-22.429688 50-50v-412c0-27.570312-22.429688-50-50-50zm30 462c0 16.542969-13.457031 30-30 30h-412c-16.542969 0-30-13.457031-30-30v-412c0-16.542969 13.457031-30 30-30h412c16.542969 0 30 13.457031 30 30zm0 0"/><path d="m136 63h200c5.523438 0 10-4.476562 10-10s-4.476562-10-10-10h-200c-5.523438 0-10 4.476562-10 10s4.476562 10 10 10zm0 0"/><path d="m294 246h-98c-5.523438 0-10 4.476562-10 10v40c0 5.523438 4.476562 9.988281 10 9.988281h39.980469c-9.289063 12.351563-24.007813 20.011719-39.980469 20.011719-27.570312 0-50-22.429688-50-50s22.429688-50 50-50c13.324219 0 25.878906 5.207031 35.34375 14.664062 3.902344 3.902344 10.230469 3.898438 14.136719-.003906l28.300781-28.300781c3.90625-3.902344 3.90625-10.234375 0-14.140625-20.777344-20.777344-48.398438-32.21875-77.78125-32.21875-60.652344 0-110 49.347656-110 110s49.347656 110 110 110 110-49.347656 110-110c0-7.390625-.738281-14.789062-2.199219-21.984375-.945312-4.664063-5.042969-8.015625-9.800781-8.015625zm-98 120c-49.625 0-90-40.375-90-90s40.375-90 90-90c20.671875 0 40.285156 6.925781 56.183594 19.675781l-14.273438 14.269531c-12.046875-9.050781-26.609375-13.945312-41.910156-13.945312-38.597656 0-70 31.402344-70 70s31.402344 70 70 70c29.585938 0 56.105469-18.75 65.996094-46.660156 2.296875-6.480469-2.503906-13.339844-9.425782-13.339844h-46.570312v-20h79.449219c.367187 3.316406.550781 6.65625.550781 10 0 49.625-40.375 90-90 90zm0 0"/></svg>