<svg height="512pt" viewBox="0 0 512 512" width="512pt" xmlns="http://www.w3.org/2000/svg"><path d="m386 53c0 5.523438-4.476562 10-10 10s-10-4.476562-10-10 4.476562-10 10-10 10 4.476562 10 10zm0 0"/><path d="m286 186c-24.960938 0-44.167969 22.691406-39.222656 47.980469 3.589844 18.347656 20.253906 31.523437 40.527344 32.035156 28.917968.738281 52.457031 26.453125 48.1875 57.15625-3.355469 24.191406-25.789063 42.828125-52.003907 42.828125h-17.488281c-27.570312 0-50-22.429688-50-50v-170c0-22.054688-17.945312-40-40-40s-40 17.945312-40 40v170c0 71.683594 58.316406 130 130 130h15.828125c66.839844 0 124.765625-48.230469 133.070313-112.9375 10.105468-78.75-51.175782-147.0625-128.898438-147.0625zm109.0625 144.519531c-6.984375 54.429688-55.664062 95.480469-113.234375 95.480469h-15.828125c-60.652344 0-110-49.347656-110-110v-170c0-11.027344 8.972656-20 20-20s20 8.972656 20 20v170c0 38.597656 31.402344 70 70 70h17.488281c36.019531 0 67.058594-25.808594 71.816407-60.074219 5.84375-42.039062-26.21875-78.847656-67.492188-79.902343-9.140625-.230469-19.429688-5.761719-21.410156-15.882813-2.566406-13.136719 7.402344-24.140625 19.597656-24.140625 64.160156 0 117.84375 56.085938 109.0625 124.519531zm0 0"/><path d="m462 0h-412c-27.570312 0-50 22.429688-50 50v412c0 27.570312 22.429688 50 50 50h412c27.570312 0 50-22.429688 50-50v-412c0-27.570312-22.429688-50-50-50zm30 462c0 16.542969-13.457031 30-30 30h-412c-16.542969 0-30-13.457031-30-30v-412c0-16.542969 13.457031-30 30-30h412c16.542969 0 30 13.457031 30 30zm0 0"/><path d="m336 63c5.523438 0 10-4.476562 10-10s-4.476562-10-10-10h-200c-5.523438 0-10 4.476562-10 10s4.476562 10 10 10zm0 0"/></svg>